<svg height="512pt" viewBox="-32 0 511 512" width="512pt" xmlns="http://www.w3.org/2000/svg"><path d="m224.367188 512c-120.402344 0-223.867188-68.585938-223.867188-159.601562 0-29.433594 11.085938-57.894532 32.132812-82.652344v-190.496094c0-43.699219 35.558594-79.25 79.265626-79.25 43.707031 0 79.265624 35.550781 79.265624 79.25v115.300781c21.859376-2.324219 44.542969-2.324219 66.402344 0v-115.285156c0-43.707031 35.558594-79.265625 79.265625-79.265625s79.269531 35.558594 79.269531 79.265625v190.480469c21.046876 24.757812 32.132813 53.21875 32.132813 82.652344-.003906 92.601562-105.679687 159.601562-223.867187 159.601562zm0 0" fill="#f3f9ff"/><path d="m448.230469 352.398438c0-29.433594-11.085938-57.894532-32.132813-82.652344v-190.480469c0-43.707031-35.558594-79.265625-79.265625-79.265625s-79.265625 35.558594-79.265625 79.265625v115.285156c-10.929687-1.164062-22.066406-1.746093-33.199218-1.746093v319.195312c118.1875 0 223.863281-67 223.863281-159.601562zm0 0" fill="#d6e6f2"/><path d="m256.5 447.734375h-64.269531c-8.28125 0-15-6.71875-15-15v-32.132813c0-8.285156 6.71875-15 15-15h64.269531c8.28125 0 15 6.714844 15 15v32.132813c0 8.28125-6.714844 15-15 15zm0 0" fill="#fff"/><path d="m288.632812 415.601562h-16.066406c-16.679687 0-32.96875-6.753906-44.691406-18.535156-1.230469-1.222656-2.398438-2.484375-3.511719-3.789062-1.125 1.316406-2.308593 2.597656-3.546875 3.832031-11.683594 11.734375-27.972656 18.492187-44.652344 18.492187h-16.066406c-8.28125 0-15-6.71875-15-15 0-8.285156 6.71875-15 15-15h16.066406c8.757813 0 17.296876-3.535156 23.433594-9.699218 6.3125-6.292969 9.769532-14.625 9.769532-23.503906v-16.066407c0-8.28125 6.714843-15 15-15 8.28125 0 15 6.71875 15 15v16.066407c0 8.878906 3.453124 17.210937 9.726562 23.460937 6.175781 6.207031 14.71875 9.742187 23.472656 9.742187h16.066406c8.285157 0 15 6.714844 15 15 0 8.28125-6.714843 15-15 15zm0 0" fill="#bad4e6"/><path d="m224.367188 385.597656v62.136719h32.132812c8.285156 0 15-6.71875 15-15v-32.132813c0-8.285156-6.714844-15-15-15h-32.132812zm0 0" fill="#f3f9ff"/><path d="m127.964844 289.199219c8.25 0 15 6.722656 15 15 0 8.28125-6.75 15-15 15s-15-6.71875-15-15c0-8.277344 6.75-15 15-15zm0 0" fill="#4537c1" fill-rule="evenodd"/><path d="m320.765625 289.199219c8.25 0 15 6.722656 15 15 0 8.28125-6.75 15-15 15s-15-6.71875-15-15c0-8.277344 6.75-15 15-15zm0 0" fill="#271d89" fill-rule="evenodd"/><path d="m111.898438 238.867188c-8.285157 0-15-6.71875-15-15v-144.601563c0-8.285156 6.714843-15 15-15 8.285156 0 15 6.714844 15 15v144.601563c0 8.285156-6.714844 15-15 15zm0 0" fill="#bad4e6"/><path d="m336.832031 238.867188c-8.28125 0-15-6.71875-15-15v-144.601563c0-8.285156 6.71875-15 15-15 8.285157 0 15 6.714844 15 15v144.601563c0 8.285156-6.714843 15-15 15zm0 0" fill="#9dc1d9"/><path d="m227.875 397.066406c11.722656 11.777344 28.011719 18.535156 44.691406 18.535156h16.066406c8.285157 0 15-6.71875 15-15 0-8.285156-6.714843-15-15-15h-16.066406c-8.753906 0-17.296875-3.535156-23.472656-9.742187-6.273438-6.25-9.726562-14.582031-9.726562-23.460937v-16.066407c0-8.28125-6.71875-15-15-15v71.945313c1.113281 1.304687 2.28125 2.570312 3.507812 3.789062zm0 0" fill="#9dc1d9"/><path d="m248.464844 351.332031h-48.199219c-8.285156 0-15-6.714843-15-15 0-8.28125 6.714844-15 15-15h48.199219c8.285156 0 15 6.71875 15 15 0 8.285157-6.714844 15-15 15zm0 0" fill="#4537c1"/><path d="m224.367188 321.332031v30h24.097656c8.285156 0 15-6.714843 15-15 0-8.28125-6.714844-15-15-15zm0 0" fill="#271d89"/></svg>